<svg width="65" height="66" viewBox="0 0 65 66" fill="none" xmlns="http://www.w3.org/2000/svg">
<g filter="url(#filter0_d_218_2)">
<ellipse cx="32.5" cy="33" rx="28.5" ry="29" fill="#D9D9D9" fill-opacity="0.08" shape-rendering="crispEdges"/>
</g>
<path d="M43.5312 30.2967H42.625V30.25H32.5V34.75H38.8579C37.9304 37.3696 35.4379 39.25 32.5 39.25C28.7723 39.25 25.75 36.2277 25.75 32.5C25.75 28.7723 28.7723 25.75 32.5 25.75C34.2207 25.75 35.7861 26.3991 36.9781 27.4594L40.1601 24.2774C38.1509 22.4048 35.4633 21.25 32.5 21.25C26.2872 21.25 21.25 26.2872 21.25 32.5C21.25 38.7128 26.2872 43.75 32.5 43.75C38.7128 43.75 43.75 38.7128 43.75 32.5C43.75 31.7457 43.6724 31.0094 43.5312 30.2967Z" fill="#FFC107"/>
<path d="M22.5471 27.2637L26.2433 29.9744C27.2434 27.4983 29.6656 25.75 32.5 25.75C34.2207 25.75 35.7861 26.3991 36.9781 27.4594L40.1601 24.2774C38.1509 22.4048 35.4632 21.25 32.5 21.25C28.1789 21.25 24.4315 23.6896 22.5471 27.2637Z" fill="#FF3D00"/>
<path d="M32.5 43.75C35.4059 43.75 38.0462 42.6379 40.0426 40.8295L36.5607 37.8831C35.3932 38.771 33.9667 39.2512 32.5 39.25C29.5739 39.25 27.0893 37.3842 26.1533 34.7804L22.4847 37.6069C24.3466 41.2503 28.1277 43.75 32.5 43.75Z" fill="#4CAF50"/>
<path d="M43.5312 30.2967H42.625V30.25H32.5V34.75H38.8579C38.4142 35.9967 37.615 37.0862 36.559 37.8837L36.5607 37.8826L40.0426 40.8289C39.7962 41.0528 43.75 38.125 43.75 32.5C43.75 31.7457 43.6724 31.0094 43.5312 30.2967Z" fill="#1976D2"/>
<defs>
<filter id="filter0_d_218_2" x="0" y="0" width="65" height="66" filterUnits="userSpaceOnUse" color-interpolation-filters="sRGB">
<feFlood flood-opacity="0" result="BackgroundImageFix"/>
<feColorMatrix in="SourceAlpha" type="matrix" values="0 0 0 0 0 0 0 0 0 0 0 0 0 0 0 0 0 0 127 0" result="hardAlpha"/>
<feOffset/>
<feGaussianBlur stdDeviation="2"/>
<feComposite in2="hardAlpha" operator="out"/>
<feColorMatrix type="matrix" values="0 0 0 0 0 0 0 0 0 0.494118 0 0 0 0 0.94902 0 0 0 0.25 0"/>
<feBlend mode="normal" in2="BackgroundImageFix" result="effect1_dropShadow_218_2"/>
<feBlend mode="normal" in="SourceGraphic" in2="effect1_dropShadow_218_2" result="shape"/>
</filter>
</defs>
</svg>
